<svg width="12" height="12" viewBox="0 0 12 12" fill="none" xmlns="http://www.w3.org/2000/svg">
<g clip-path="url(#clip0_294_9145)">
<path d="M6.02596 7.41423L6.73307 8.12134L8.85439 6.00002L6.73307 3.8787L6.02596 4.58581L6.94018 5.50002H3.17161V6.50002H6.94017L6.02596 7.41423Z" fill="white"/>
<path fill-rule="evenodd" clip-rule="evenodd" d="M9.88909 9.88909C12.037 7.7412 12.037 4.2588 9.88909 2.11091C7.7412 -0.0369709 4.2588 -0.0369709 2.11091 2.11091C-0.0369709 4.2588 -0.0369709 7.7412 2.11091 9.88909C4.2588 12.037 7.7412 12.037 9.88909 9.88909ZM9.18198 9.18198C10.9393 7.42462 10.9393 4.57538 9.18198 2.81802C7.42462 1.06066 4.57538 1.06066 2.81802 2.81802C1.06066 4.57538 1.06066 7.42462 2.81802 9.18198C4.57538 10.9393 7.42462 10.9393 9.18198 9.18198Z" fill="white"/>
</g>
<defs>
<clipPath id="clip0_294_9145">
<rect width="12" height="12" fill="white"/>
</clipPath>
</defs>
</svg>
