<svg width="330" height="33" viewBox="0 0 330 33" fill="none" xmlns="http://www.w3.org/2000/svg">
<path d="M0 12C0 5.37258 5.37258 0 12 0H30C36.6274 0 42 5.37258 42 12V21C42 27.6274 36.6274 33 30 33H12C5.37258 33 0 27.6274 0 21V12Z" fill="#31508C"/>
<path d="M9.29289 17.7071C8.90237 17.3166 8.90237 16.6834 9.29289 16.2929L15.6569 9.92893C16.0474 9.53841 16.6805 9.53841 17.0711 9.92893C17.4616 10.3195 17.4616 10.9526 17.0711 11.3431L11.4142 17L17.0711 22.6569C17.4616 23.0474 17.4616 23.6805 17.0711 24.0711C16.6805 24.4616 16.0474 24.4616 15.6569 24.0711L9.29289 17.7071ZM32 18L10 18L10 16L32 16L32 18Z" fill="white"/>
</svg>
