<svg width="93" height="92" viewBox="0 0 93 92" fill="none" xmlns="http://www.w3.org/2000/svg">
<g filter="url(#filter0_d_333_2251)">
<path d="M24.5 42C24.5 29.8497 34.3497 20 46.5 20V20C58.6503 20 68.5 29.8497 68.5 42V42C68.5 54.1503 58.6503 64 46.5 64V64C34.3497 64 24.5 54.1503 24.5 42V42Z" fill="white"/>
<path d="M44.5539 51.1667V42.804H41.7396V39.5449H44.5539V37.1414C44.5539 34.3521 46.2574 32.8333 48.7456 32.8333C49.9375 32.8333 50.9619 32.9221 51.2604 32.9617V35.8767L49.5347 35.8774C48.1815 35.8774 47.9194 36.5205 47.9194 37.4641V39.5449H51.1467L50.7265 42.804H47.9194V51.1667H44.5539Z" fill="#3B65BF"/>
</g>
<defs>
<filter id="filter0_d_333_2251" x="0.5" y="0" width="92" height="92" filterUnits="userSpaceOnUse" color-interpolation-filters="sRGB">
<feFlood flood-opacity="0" result="BackgroundImageFix"/>
<feColorMatrix in="SourceAlpha" type="matrix" values="0 0 0 0 0 0 0 0 0 0 0 0 0 0 0 0 0 0 127 0" result="hardAlpha"/>
<feOffset dy="4"/>
<feGaussianBlur stdDeviation="12"/>
<feColorMatrix type="matrix" values="0 0 0 0 0 0 0 0 0 0 0 0 0 0 0 0 0 0 0.08 0"/>
<feBlend mode="normal" in2="BackgroundImageFix" result="effect1_dropShadow_333_2251"/>
<feBlend mode="normal" in="SourceGraphic" in2="effect1_dropShadow_333_2251" result="shape"/>
</filter>
</defs>
</svg>
