<svg width="48" height="48" viewBox="0 0 48 48" fill="none" xmlns="http://www.w3.org/2000/svg">
<circle cx="24" cy="24" r="24" fill="#6078F8"/>
<path d="M33.2188 25.3264L29.4585 24.2519C27.7652 23.7745 26.2227 22.8705 24.9787 21.6265C23.7346 20.3824 22.8306 18.8399 22.3532 17.1466L21.2787 13.3863C21.2246 13.2548 21.1327 13.1423 21.0146 13.0631C20.8964 12.9839 20.7574 12.9416 20.6152 12.9416C20.473 12.9416 20.334 12.9839 20.2158 13.0631C20.0977 13.1423 20.0057 13.2548 19.9517 13.3863L18.8771 17.1466C18.3997 18.8399 17.4958 20.3824 16.2517 21.6265C15.0077 22.8705 13.4652 23.7745 11.7718 24.2519L8.01159 25.3264C7.86721 25.3674 7.74013 25.4544 7.64965 25.5741C7.55916 25.6939 7.51021 25.8399 7.51021 25.9899C7.51021 26.14 7.55916 26.286 7.64965 26.4058C7.74013 26.5255 7.86721 26.6125 8.01159 26.6534L11.7718 27.728C13.4652 28.2054 15.0077 29.1094 16.2517 30.3534C17.4958 31.5975 18.3997 33.14 18.8771 34.8333L19.9517 38.5935C19.9927 38.7379 20.0796 38.865 20.1994 38.9555C20.3191 39.046 20.4651 39.0949 20.6152 39.0949C20.7653 39.0949 20.9113 39.046 21.031 38.9555C21.1507 38.865 21.2377 38.7379 21.2787 38.5935L22.3532 34.8333C22.8306 33.14 23.7346 31.5975 24.9787 30.3534C26.2227 29.1094 27.7652 28.2054 29.4585 27.728L33.2188 26.6534C33.3632 26.6125 33.4903 26.5255 33.5807 26.4058C33.6712 26.286 33.7202 26.14 33.7202 25.9899C33.7202 25.8399 33.6712 25.6939 33.5807 25.5741C33.4903 25.4544 33.3632 25.3674 33.2188 25.3264Z" fill="white"/>
<path d="M39.9159 14.7333L38.0606 14.202C37.2251 13.9659 36.464 13.5189 35.8502 12.9038C35.2364 12.2886 34.7904 11.5259 34.5549 10.6886L34.0247 8.82932C33.998 8.76426 33.9527 8.70863 33.8944 8.66947C33.8361 8.63031 33.7675 8.60941 33.6973 8.60941C33.6271 8.60941 33.5586 8.63031 33.5003 8.66947C33.442 8.70863 33.3966 8.76426 33.3699 8.82932L32.8398 10.6886C32.6042 11.5259 32.1582 12.2886 31.5444 12.9038C30.9306 13.5189 30.1695 13.9659 29.334 14.202L27.4787 14.7333C27.4075 14.7535 27.3448 14.7965 27.3002 14.8558C27.2555 14.915 27.2314 14.9871 27.2314 15.0614C27.2314 15.1356 27.2555 15.2078 27.3002 15.267C27.3448 15.3262 27.4075 15.3692 27.4787 15.3894L29.334 15.9208C30.1695 16.1568 30.9306 16.6038 31.5444 17.2189C32.1582 17.8341 32.6042 18.5968 32.8398 19.4341L33.3699 21.2934C33.3902 21.3648 33.4331 21.4276 33.4922 21.4724C33.5512 21.5171 33.6233 21.5413 33.6973 21.5413C33.7714 21.5413 33.8434 21.5171 33.9025 21.4724C33.9616 21.4276 34.0045 21.3648 34.0247 21.2934L34.5549 19.4341C34.7904 18.5968 35.2364 17.8341 35.8502 17.2189C36.464 16.6038 37.2251 16.1568 38.0606 15.9208L39.9159 15.3894C39.9871 15.3692 40.0498 15.3262 40.0945 15.267C40.1391 15.2078 40.1633 15.1356 40.1633 15.0614C40.1633 14.9871 40.1391 14.915 40.0945 14.8558C40.0498 14.7965 39.9871 14.7535 39.9159 14.7333Z" fill="white"/>
</svg>
